<svg width="0" height="0" class="hidden">
  <symbol xmlns="http://www.w3.org/2000/svg" viewBox="0 0 511.99 511.99" id="chat">
    <path d="M485.285 50.177h-352.8c-4.143 0-7.5 3.357-7.5 7.5s3.357 7.5 7.5 7.5h352.8c6.454 0 11.705 5.251 11.705 11.706v16.215a26.544 26.544 0 00-11.705-2.708H26.706c-4.197 0-8.169.976-11.706 2.708V76.883c0-6.455 5.251-11.706 11.706-11.706h75.792c4.143 0 7.5-3.357 7.5-7.5s-3.357-7.5-7.5-7.5H26.706C11.98 50.177 0 62.158 0 76.883v315.33c0 14.726 11.98 26.705 26.706 26.705h75.464l20.854 36.121c2.45 4.241 6.837 6.773 11.734 6.773 4.898 0 9.285-2.532 11.735-6.774l20.854-36.12h67.613c4.143 0 7.5-3.357 7.5-7.5s-3.357-7.5-7.5-7.5h-68.45a13.59 13.59 0 00-11.735 6.775l-20.017 34.67-20.016-34.671a13.588 13.588 0 00-11.735-6.774H26.706c-6.455 0-11.706-5.251-11.706-11.705V117.096c0-6.455 5.251-11.706 11.706-11.706h458.579c6.454 0 11.705 5.251 11.705 11.706v275.117c0 6.454-5.251 11.705-11.705 11.705H264.947c-4.143 0-7.5 3.357-7.5 7.5s3.357 7.5 7.5 7.5h220.338c14.726 0 26.705-11.979 26.705-26.705V76.883c0-14.725-11.979-26.706-26.705-26.706z"></path>
    <path d="M254.376 220.972a7.5 7.5 0 007.5-12.99l-63.366-36.585a11.728 11.728 0 00-11.694 0 11.728 11.728 0 00-5.847 10.127v146.261c0 4.164 2.24 8.045 5.847 10.127s8.087 2.082 11.694 0l126.663-73.13a11.723 11.723 0 005.849-10.126 11.724 11.724 0 00-5.847-10.128l-37.28-21.524a7.5 7.5 0 00-7.5 12.99l32.32 18.66-116.746 67.404V187.25z"></path>
  </symbol>
  <symbol xmlns="http://www.w3.org/2000/svg" viewBox="0 0 490.667 490.667" id="free">
    <path d="M138.667 192H96c-5.888 0-10.667 4.779-10.667 10.667V288c0 5.888 4.779 10.667 10.667 10.667s10.667-4.779 10.667-10.667v-74.667h32c5.888 0 10.667-4.779 10.667-10.667S144.555 192 138.667 192z"></path>
    <path d="M117.333 234.667H96c-5.888 0-10.667 4.779-10.667 10.667S90.112 256 96 256h21.333c5.888 0 10.667-4.779 10.667-10.667s-4.779-10.666-10.667-10.666z"></path>
    <path d="M245.333 0C110.059 0 0 110.059 0 245.333s110.059 245.333 245.333 245.333 245.333-110.059 245.333-245.333S380.608 0 245.333 0zm0 469.333c-123.52 0-224-100.48-224-224s100.48-224 224-224 224 100.48 224 224-100.48 224-224 224z"></path>
    <path d="M386.752 131.989C352.085 88.789 300.544 64 245.333 64s-106.752 24.789-141.419 67.989c-3.691 4.587-2.965 11.307 1.643 14.997 4.587 3.691 11.307 2.965 14.976-1.643 30.613-38.144 76.096-60.011 124.8-60.011s94.187 21.867 124.779 60.011a10.658 10.658 0 008.32 3.989c2.368 0 4.715-.768 6.677-2.347 4.608-3.689 5.334-10.409 1.643-14.996zm-10.347 222.934c-4.224-4.032-11.008-3.861-15.061.405-30.613 32.235-71.808 50.005-116.011 50.005s-85.397-17.771-115.989-50.005c-4.032-4.309-10.816-4.437-15.061-.405-4.309 4.053-4.459 10.816-.405 15.083 34.667 36.544 81.344 56.661 131.456 56.661s96.789-20.117 131.477-56.661c4.053-4.267 3.882-11.03-.406-15.083zm-169.6-99.2c15.701-2.027 27.861-15.488 27.861-31.723 0-17.643-14.357-32-32-32h-21.333c-5.888 0-10.667 4.779-10.667 10.667V288c0 5.888 4.779 10.667 10.667 10.667S192 293.888 192 288v-16.917l24.448 24.469a10.716 10.716 0 007.552 3.115c2.731 0 5.461-1.045 7.531-3.136 4.16-4.16 4.16-10.923 0-15.083l-24.726-24.725zM192 234.667v-21.333h10.667c5.867 0 10.667 4.779 10.667 10.667s-4.8 10.667-10.667 10.667H192zm117.333 42.666h-32v-64h32c5.888 0 10.667-4.779 10.667-10.667S315.221 192 309.333 192h-42.667c-5.888 0-10.667 4.779-10.667 10.667V288c0 5.888 4.779 10.667 10.667 10.667h42.667c5.888 0 10.667-4.779 10.667-10.667s-4.779-10.667-10.667-10.667z"></path>
    <path d="M288 234.667h-21.333c-5.888 0-10.667 4.779-10.667 10.667S260.779 256 266.667 256H288c5.888 0 10.667-4.779 10.667-10.667s-4.779-10.666-10.667-10.666zm106.667 42.666h-32v-64h32c5.888 0 10.667-4.779 10.667-10.667S400.555 192 394.667 192H352c-5.888 0-10.667 4.779-10.667 10.667V288c0 5.888 4.779 10.667 10.667 10.667h42.667c5.888 0 10.667-4.779 10.667-10.667s-4.779-10.667-10.667-10.667z"></path>
    <path d="M373.333 234.667H352c-5.888 0-10.667 4.779-10.667 10.667S346.112 256 352 256h21.333c5.888 0 10.667-4.779 10.667-10.667s-4.779-10.666-10.667-10.666z"></path>
  </symbol>
  <symbol version="1.0" xmlns="http://www.w3.org/2000/svg" viewBox="0 0 287 60" id="logo"></symbol>
  <symbol version="1.0" xmlns="http://www.w3.org/2000/svg" viewBox="0 0 512 512" id="users">
    <path d="M84 .9c-5.1 1.6-10.6 5-14.6 9-10.3 10.5-12.8 25.5-6.5 39.7 2.8 6.1 11 13.9 17.1 16.1l5 1.8v43.1l-9.1 1.7c-30.6 5.8-57 27.4-69.2 56.7C1.2 182.3.5 186.6.6 205.5c0 15.6.2 17.7 2.8 26 11.9 38.9 45 65 85.3 67.2 27.6 1.5 52.4-8 71.7-27.3 12.1-12 21.4-28.3 24.7-43.2.8-3.4 1.7-5.1 2.5-4.8.6.2 9.1 6.6 18.8 14.2 13.1 10.2 17.5 14.2 17.1 15.3-1.5 3.8-2.2 12-1.5 16.8 1.7 10.6 6.7 18.3 15.5 23.8 23.4 14.7 52.7-1.4 52.7-29 0-13.8-7.4-25.4-19.7-31.2-5.1-2.4-7.3-2.8-14.5-2.8-7.6 0-9.3.4-14.8 3.1l-6.2 3-23.2-18-23.2-18.1-1.6-10c-1-5.5-2.7-12.9-3.9-16.5-2.6-7.6-9-19.8-13.1-25l-2.8-3.6 18.9-16.2c10.4-9 19.3-16 19.8-15.8.5.3 1.2 2.3 1.6 4.3.4 2.1 2.2 7.6 4.2 12.3 11 26.8 34.4 47.3 63.1 55.2 6.4 1.8 10.4 2.2 24.2 2.2 15 0 17.3-.3 25.3-2.7 4.8-1.5 11.9-4.3 15.7-6.2 3.8-1.9 7.2-3.5 7.5-3.5.2 0 8.8 11.1 19 24.7l18.6 24.7-7.3 2.6c-30.9 10.9-54.6 38.5-60.9 71-2.5 12.8-1.3 33.3 2.7 46.2.4 1.3-3.6 4.8-16.2 14.2L286.7 371l-3.9-6c-8.5-13-25.2-26.9-39.8-33.1-14.2-6-21.1-7.3-38-7.4-13.1 0-16.8.4-23.9 2.3-26.5 7.2-46.9 23.5-59.6 47.5-4.7 8.9-8.9 21.2-10 29.4l-.7 5.3H88.9c-17 0-21.9-.3-21.9-1.3 0-2.3-4.6-9.8-8.5-13.8-6.3-6.5-12.5-9.2-22.5-9.7-11.6-.5-18.4 1.9-26.1 9.7C2.1 401.6-.3 408.4.2 420c.4 6.6 1 9.6 3 13.5 11 21.3 39.2 25.6 55.8 8.5 3.1-3.1 5.6-7 6.7-10l1.8-5h43.1l1.7 9.1c6.9 36.7 37 67.1 73.6 74.5 12.6 2.5 33.5 1.6 45.6-2 23.4-7 43.2-22.8 55.4-44.1 3.9-6.8 9.1-19.9 9.1-23 0-.8.2-1.5.4-1.5.5 0 53.7 25.8 54.2 26.3.2.1 0 2.8-.5 5.8-2.5 15.2 5.3 30.3 18.9 36.8 4.7 2.2 6.8 2.6 15 2.6s10.3-.4 15-2.6c21.2-10.1 26-38.7 9.3-55.5-11.4-11.3-30.8-13.3-43.4-4.3l-3 2.1-31.2-15.1-31.2-15.1-.7-9.3c-.4-5-1.6-12.5-2.6-16.5l-1.9-7.2 13.6-10.2c7.5-5.6 15-11.2 16.7-12.5l3.1-2.3 3.8 5.7c12.6 19 31.8 32.2 56.5 39 10.2 2.7 33.8 2.4 45-.6 20.9-5.6 38.5-17.3 51.5-34.2 20.6-26.6 25.1-63.9 11.5-95-13.9-31.5-43.2-52.6-77.6-55.9-5.9-.5-11-.8-11.4-.5-.4.3-10.6-12.7-22.7-28.8l-21.9-29.2 4.4-4.5c13.5-13.8 21.3-30.3 25.9-54.7l.8-4.3 25.5 12.4c21 10.2 25.4 12.7 25.2 14.2-.2 1.1-.3 5.5-.4 10-.1 6.8.3 9 2.6 14 12.3 26.9 49.7 27.2 62.8.5 1.9-3.8 2.3-6.2 2.3-14.6 0-8.6-.3-10.7-2.4-15-3.3-6.6-10-13.1-16.9-16.3-4.8-2.3-7.1-2.7-14.3-2.7-7.7 0-9.2.3-15.6 3.5l-7.1 3.5-30.8-14.8c-17-8.2-31.2-15.2-31.6-15.6-.4-.4-1.7-4.1-2.7-8.4-8.4-32.8-33.5-58.4-66.6-67.9-7-2-10.2-2.3-25-2.3-12.9.1-18.5.5-23.1 1.8-28 7.8-51.1 27.2-62.6 52.4-3.7 8.1-7.8 23.9-7.8 29.8v4.3l-23.8 20.4c-13 11.1-24.5 20.9-25.4 21.7-1.5 1.1-2.3.9-5.7-1.8-9.6-7.6-29.4-15.9-41.8-17.6l-5.3-.7V88.9c0-17 .3-21.9 1.3-21.9 2.3 0 9.8-4.6 13.8-8.5 6.5-6.3 9.2-12.5 9.7-22.5.5-11.6-1.9-18.4-9.7-26.1C111 2.7 104.1 0 93.7.1c-4 0-8.3.4-9.7.8zm18.1 19.4c7.8 5.3 10.1 14 5.7 21.9-5.4 9.5-17.7 11.1-25.4 3.4-5.8-5.8-6.5-15.2-1.6-21.3 5.1-6.3 15-8.2 21.3-4zm214.5-.3c48.3 12.2 72.2 65 49.3 109-3.5 6.9-12.7 19.1-14.8 19.8-.5.2-1-2.3-1.3-5.5-.8-10.5-6.8-18.7-16.5-22.3-4.9-1.8-7.8-2-34.7-2-33.1 0-35.3.4-43 7.1-5.1 4.5-8.6 12.3-8.6 19.2l-.1 4.2-4.9-5.3c-10.4-11.1-17.1-26.2-18.9-42.5-4.3-37.8 21.8-73.9 59.4-82.2 9.3-2.1 24.8-1.8 34.1.5zm168.8 102.3c5.6 3.1 7.9 6.7 8.4 13 .5 6.4-1.2 10.4-6.3 14.2-6.6 5.1-15.9 4.2-21.4-2-5.8-6.7-6-14.9-.4-21.6 5.1-6.1 12.9-7.5 19.7-3.6zm-374.9 8.2c4 .8 11.5 3.7 17.5 6.6 9 4.5 11.7 6.4 19 13.8 16.6 16.8 23.8 34.9 22.7 57.1-1 17.8-5.9 30.9-16.9 44.7l-6.3 7.8-1.2-6.7c-1.9-10.6-5.5-15.9-13.5-20.4l-5.3-2.9-30.8-.3c-34.6-.3-37.1 0-44.5 6.3-5 4.3-7.9 10.2-8.8 17.8l-.7 5.8-2.5-2.3c-7.9-7.4-16.9-24.2-19.7-37.2-2.6-11.5-1.7-28.3 1.9-39.1 6.6-19.6 22.7-37.7 40.8-46 13.6-6.2 32.8-8.2 48.3-5zm216.8 7.7c4 2.1 4.6 3.9 4.7 14.1v9.8l-4.4 1.9c-9 4-16.7 5.5-29.1 5.4-12.4 0-19.5-1.3-29-5.4l-4.5-1.9v-9.3c0-10 1.1-13.1 5.4-14.8 3.3-1.4 54.3-1.2 56.9.2zM424 241.1c8.5 1.4 19.5 6 28.6 12.1 25.9 17.3 38.6 50.5 30.9 80.9-2.5 9.9-9.8 23.8-16.3 30.9l-5.7 6.4-.6-6c-1-10.5-6.1-17.7-15.6-22.1-5.2-2.4-5.3-2.4-37-2.1-30.4.3-32 .4-35.8 2.5-8.6 4.6-14.4 13.8-14.5 22.8l-.1 5-5.2-5.7c-7-7.6-13-18.4-16.2-29.3-3.3-11.1-3.8-26.9-1.1-37.9 2.2-9.1 8.2-21.6 14.1-29.5 9.8-12.9 27.6-24.1 43.5-27.5 12.1-2.5 17.2-2.6 31-.5zm-301 8.4c3.8 2 5.2 6.8 4.8 16.4l-.3 7.5-7.5 2.7c-18.3 6.6-38.9 6.1-56.2-1.5L60 273v-8.8c0-9.5 1.2-13 5-14.9 3.9-2 54.1-1.8 58 .2zm142.5 1.9c8.8 6.7 9.1 18.7.5 25.9-10.2 8.6-26.2.8-26.2-12.8 0-13.4 15.2-21.1 25.7-13.1zm-45.7 92.2c41 8.4 68 48.7 59.6 89.2-2.8 13.7-9 26.1-18.2 36.3l-4.7 5.3-.6-7.2c-.4-5.8-1.1-8-3.5-11.4-4.2-6-10.4-10.4-16.4-11.7-6.7-1.4-55.3-1.4-62 0-11.1 2.4-19.5 12-20.7 23.6l-.6 5.7-5.1-5.6c-12-13.1-17.6-27.5-18.3-46.3-.6-15.8 1.1-23.8 7.8-37.5 4.5-9 6.4-11.7 13.8-19 9-8.9 15.9-13.5 26.2-17.7 13.1-5.3 28.4-6.6 42.7-3.7zm218.5 16.6c4 2.1 4.6 3.9 4.7 14.1v9.8l-4.7 2c-8.4 3.7-22.8 6.2-32 5.6-9-.6-19.4-2.9-26-5.8l-4.3-1.8v-9.6c0-9.3.1-9.8 2.9-12.6l2.9-2.9H409c18.7 0 27.8.4 29.3 1.2zM41.9 404c9.6 4.9 11.5 17.8 3.7 25.6-7.7 7.7-20 6.1-25.4-3.4-4.4-7.9-2.1-16.6 5.7-21.9 4.3-2.9 10.8-3 16-.3zm193.5 59.9c2.5 2.3 2.6 3 2.6 12.7v10.3l-5.7 2.1c-17.9 6.7-37.8 6.7-55.5-.2l-5.8-2.3v-8.7c0-4.8.6-9.9 1.2-11.4 2.3-5 4.9-5.4 34-5.1l26.6.2 2.6 2.4zm157.3.2c7.3 4.5 9.6 14.1 5.3 21.7-6.1 10.8-21.9 10.8-28 0-8.3-14.8 8.2-30.6 22.7-21.7z"></path>
    <path d="M285.9 36.4c-3.2 1.2-7 3.3-8.5 4.5-20.2 15.9-16.4 48 6.9 58.7 17.2 7.8 37.6.4 45.5-16.6 3.1-6.6 4-16.9 2.1-23.8-5.3-19.7-27.3-30.6-46-22.8zm21.8 18.2c4.5 3.4 6.6 7 7.1 12.3.9 10.2-8.2 19.2-18.2 17.7-7.5-1.2-14.6-9.1-14.6-16.3 0-4.7 4.2-11.5 8.6-14.1 4.8-2.8 13-2.6 17.1.4zM80.6 147.5c-18.4 7.5-26.1 28-17.7 47 2.3 5.2 9.4 12.6 14.8 15.3 17 8.7 38.2 1.9 46.9-15 4-7.6 4.5-19.9 1.3-28.3-3-8.1-11.2-16.4-19.2-19.3-8.1-3.1-18.2-3-26.1.3zm21.5 17.8c12.5 8.4 9.8 25.8-4.6 29.8-10.8 3-22.1-8.2-19.6-19.2 2.5-10.8 15.5-16.5 24.2-10.6zm296.4 91.9c-4.9 1.7-13.1 7.6-16 11.4-5.1 6.7-6.9 12.2-7 21.4 0 7.2.4 9.4 2.6 14.1 10.7 22.7 40 27.6 56.8 9.4 5.6-6.1 8.3-12.4 8.9-20.7 1.1-15.5-7.7-29.5-21.8-34.9-5.6-2.1-18.4-2.5-23.5-.7zm18.4 18.3c9.9 5.1 12 17.8 4.2 25.6-7.1 7.2-16.4 7.1-23.3-.2-5.9-6.2-6.1-14.4-.6-21.4 4.1-5.2 13.7-7.2 19.7-4zM195 359.4c-9.5 2.7-17.3 9.6-21.6 19.1-2.3 5-2.8 7.4-2.8 14 0 10.3 3.4 18.4 10.6 25.1 7.4 6.9 12.5 8.9 23.3 8.9 8.2 0 9.6-.3 15.7-3.3 7.3-3.6 11.9-8.2 15.8-15.9 2.2-4.2 2.5-6.1 2.5-14.8 0-8.7-.3-10.6-2.5-14.9-3.5-6.9-10.1-13.3-16.7-16.3-6.7-3.1-17.4-3.9-24.3-1.9zm17.4 18.9c5.4 3 7.8 6.7 8.3 12.4 1 9.5-5.2 17.2-14.5 18-5.8.5-10.3-1.7-14.6-7-2.5-3.2-3-4.7-3-9.2 0-4.5.5-6 3-9.2 5.8-7.3 13.6-9.2 20.8-5z"></path>
  </symbol>
</svg>